<mxfile host="app.diagrams.net" modified="2022-12-05T03:11:38.484Z" agent="5.0 (Macintosh; Intel Mac OS X 10_15_7) AppleWebKit/537.36 (KHTML, like Gecko) Chrome/107.0.0.0 Safari/537.36" version="20.6.0" etag="7n9W-wU-ZYoQwpg6GA1h" type="github">
  <diagram id="qnAYHWkGqjJaZW_h_Cl6" name="第 1 页">
    <mxGraphModel dx="1298" dy="724" grid="1" gridSize="10" guides="1" tooltips="1" connect="1" arrows="1" fold="1" page="1" pageScale="1" pageWidth="827" pageHeight="1169" math="0" shadow="0">
      <root>
        <mxCell id="0" />
        <mxCell id="1" parent="0" />
        <mxCell id="093m5_2xSW1rwAm4586A-1" value="area" style="swimlane;childLayout=stackLayout;horizontal=1;startSize=30;horizontalStack=0;rounded=1;fontSize=14;fontStyle=0;strokeWidth=2;resizeParent=0;resizeLast=1;shadow=0;dashed=0;align=center;" vertex="1" parent="1">
          <mxGeometry x="190" y="150" width="160" height="120" as="geometry" />
        </mxCell>
        <mxCell id="093m5_2xSW1rwAm4586A-2" value="+id&#xa;+ent_id&#xa;+max&#xa;+Attribute3" style="align=left;strokeColor=none;fillColor=none;spacingLeft=4;fontSize=12;verticalAlign=top;resizable=0;rotatable=0;part=1;" vertex="1" parent="093m5_2xSW1rwAm4586A-1">
          <mxGeometry y="30" width="160" height="90" as="geometry" />
        </mxCell>
        <mxCell id="093m5_2xSW1rwAm4586A-8" value="show" style="shape=umlFrame;whiteSpace=wrap;html=1;" vertex="1" parent="1">
          <mxGeometry x="170" y="370" width="550" height="300" as="geometry" />
        </mxCell>
        <mxCell id="093m5_2xSW1rwAm4586A-12" value="" style="rounded=0;whiteSpace=wrap;html=1;fillColor=#d5e8d4;strokeColor=#82b366;" vertex="1" parent="1">
          <mxGeometry x="350" y="430" width="195" height="150" as="geometry" />
        </mxCell>
        <mxCell id="093m5_2xSW1rwAm4586A-13" value="zone1" style="rounded=0;whiteSpace=wrap;html=1;fillColor=#f8cecc;strokeColor=#b85450;" vertex="1" parent="1">
          <mxGeometry x="360" y="435" width="90" height="120" as="geometry" />
        </mxCell>
        <mxCell id="093m5_2xSW1rwAm4586A-14" value="zone2" style="rounded=0;whiteSpace=wrap;html=1;fillColor=#ffe6cc;strokeColor=#d79b00;" vertex="1" parent="1">
          <mxGeometry x="455" y="435" width="85" height="120" as="geometry" />
        </mxCell>
        <mxCell id="093m5_2xSW1rwAm4586A-15" value="area" style="text;html=1;strokeColor=none;fillColor=none;align=center;verticalAlign=middle;whiteSpace=wrap;rounded=0;" vertex="1" parent="1">
          <mxGeometry x="420" y="555" width="60" height="30" as="geometry" />
        </mxCell>
        <mxCell id="093m5_2xSW1rwAm4586A-16" value="zone" style="swimlane;childLayout=stackLayout;horizontal=1;startSize=30;horizontalStack=0;rounded=1;fontSize=14;fontStyle=0;strokeWidth=2;resizeParent=0;resizeLast=1;shadow=0;dashed=0;align=center;" vertex="1" parent="1">
          <mxGeometry x="490" y="150" width="160" height="120" as="geometry" />
        </mxCell>
        <mxCell id="093m5_2xSW1rwAm4586A-17" value="+Attribute1&#xa;+Attribute2&#xa;+Attribute3" style="align=left;strokeColor=none;fillColor=none;spacingLeft=4;fontSize=12;verticalAlign=top;resizable=0;rotatable=0;part=1;" vertex="1" parent="093m5_2xSW1rwAm4586A-16">
          <mxGeometry y="30" width="160" height="90" as="geometry" />
        </mxCell>
        <mxCell id="093m5_2xSW1rwAm4586A-44" value="DPA Invertory" style="shape=table;startSize=30;container=1;collapsible=0;childLayout=tableLayout;fontStyle=1;align=center;" vertex="1" parent="1">
          <mxGeometry x="120" y="760" width="480" height="140" as="geometry" />
        </mxCell>
        <mxCell id="093m5_2xSW1rwAm4586A-45" value="" style="shape=tableRow;horizontal=0;startSize=0;swimlaneHead=0;swimlaneBody=0;top=0;left=0;bottom=0;right=0;collapsible=0;dropTarget=0;fillColor=none;points=[[0,0.5],[1,0.5]];portConstraint=eastwest;" vertex="1" parent="093m5_2xSW1rwAm4586A-44">
          <mxGeometry y="30" width="480" height="55" as="geometry" />
        </mxCell>
        <mxCell id="093m5_2xSW1rwAm4586A-46" value="pre_arrival" style="shape=partialRectangle;html=1;whiteSpace=wrap;connectable=0;fillColor=none;top=0;left=0;bottom=0;right=0;overflow=hidden;" vertex="1" parent="093m5_2xSW1rwAm4586A-45">
          <mxGeometry width="70" height="55" as="geometry">
            <mxRectangle width="70" height="55" as="alternateBounds" />
          </mxGeometry>
        </mxCell>
        <mxCell id="093m5_2xSW1rwAm4586A-74" value="pre_arrival_booked" style="shape=partialRectangle;html=1;whiteSpace=wrap;connectable=0;fillColor=none;top=0;left=0;bottom=0;right=0;overflow=hidden;" vertex="1" parent="093m5_2xSW1rwAm4586A-45">
          <mxGeometry x="70" width="110" height="55" as="geometry">
            <mxRectangle width="110" height="55" as="alternateBounds" />
          </mxGeometry>
        </mxCell>
        <mxCell id="093m5_2xSW1rwAm4586A-47" value="on_day" style="shape=partialRectangle;html=1;whiteSpace=wrap;connectable=0;fillColor=none;top=0;left=0;bottom=0;right=0;overflow=hidden;" vertex="1" parent="093m5_2xSW1rwAm4586A-45">
          <mxGeometry x="180" width="50" height="55" as="geometry">
            <mxRectangle width="50" height="55" as="alternateBounds" />
          </mxGeometry>
        </mxCell>
        <mxCell id="093m5_2xSW1rwAm4586A-76" value="on_day_booked" style="shape=partialRectangle;html=1;whiteSpace=wrap;connectable=0;fillColor=none;top=0;left=0;bottom=0;right=0;overflow=hidden;" vertex="1" parent="093m5_2xSW1rwAm4586A-45">
          <mxGeometry x="230" width="90" height="55" as="geometry">
            <mxRectangle width="90" height="55" as="alternateBounds" />
          </mxGeometry>
        </mxCell>
        <mxCell id="093m5_2xSW1rwAm4586A-78" value="max" style="shape=partialRectangle;html=1;whiteSpace=wrap;connectable=0;fillColor=none;top=0;left=0;bottom=0;right=0;overflow=hidden;" vertex="1" parent="093m5_2xSW1rwAm4586A-45">
          <mxGeometry x="320" width="100" height="55" as="geometry">
            <mxRectangle width="100" height="55" as="alternateBounds" />
          </mxGeometry>
        </mxCell>
        <mxCell id="093m5_2xSW1rwAm4586A-48" value="bank" style="shape=partialRectangle;html=1;whiteSpace=wrap;connectable=0;fillColor=none;top=0;left=0;bottom=0;right=0;overflow=hidden;" vertex="1" parent="093m5_2xSW1rwAm4586A-45">
          <mxGeometry x="420" width="60" height="55" as="geometry">
            <mxRectangle width="60" height="55" as="alternateBounds" />
          </mxGeometry>
        </mxCell>
        <mxCell id="093m5_2xSW1rwAm4586A-49" value="" style="shape=tableRow;horizontal=0;startSize=0;swimlaneHead=0;swimlaneBody=0;top=0;left=0;bottom=0;right=0;collapsible=0;dropTarget=0;fillColor=none;points=[[0,0.5],[1,0.5]];portConstraint=eastwest;" vertex="1" parent="093m5_2xSW1rwAm4586A-44">
          <mxGeometry y="85" width="480" height="55" as="geometry" />
        </mxCell>
        <mxCell id="093m5_2xSW1rwAm4586A-50" value="50" style="shape=partialRectangle;html=1;whiteSpace=wrap;connectable=0;fillColor=none;top=0;left=0;bottom=0;right=0;overflow=hidden;" vertex="1" parent="093m5_2xSW1rwAm4586A-49">
          <mxGeometry width="70" height="55" as="geometry">
            <mxRectangle width="70" height="55" as="alternateBounds" />
          </mxGeometry>
        </mxCell>
        <mxCell id="093m5_2xSW1rwAm4586A-75" value="40" style="shape=partialRectangle;html=1;whiteSpace=wrap;connectable=0;fillColor=none;top=0;left=0;bottom=0;right=0;overflow=hidden;" vertex="1" parent="093m5_2xSW1rwAm4586A-49">
          <mxGeometry x="70" width="110" height="55" as="geometry">
            <mxRectangle width="110" height="55" as="alternateBounds" />
          </mxGeometry>
        </mxCell>
        <mxCell id="093m5_2xSW1rwAm4586A-51" value="50" style="shape=partialRectangle;html=1;whiteSpace=wrap;connectable=0;fillColor=none;top=0;left=0;bottom=0;right=0;overflow=hidden;" vertex="1" parent="093m5_2xSW1rwAm4586A-49">
          <mxGeometry x="180" width="50" height="55" as="geometry">
            <mxRectangle width="50" height="55" as="alternateBounds" />
          </mxGeometry>
        </mxCell>
        <mxCell id="093m5_2xSW1rwAm4586A-77" value="30" style="shape=partialRectangle;html=1;whiteSpace=wrap;connectable=0;fillColor=none;top=0;left=0;bottom=0;right=0;overflow=hidden;" vertex="1" parent="093m5_2xSW1rwAm4586A-49">
          <mxGeometry x="230" width="90" height="55" as="geometry">
            <mxRectangle width="90" height="55" as="alternateBounds" />
          </mxGeometry>
        </mxCell>
        <mxCell id="093m5_2xSW1rwAm4586A-79" value="100" style="shape=partialRectangle;html=1;whiteSpace=wrap;connectable=0;fillColor=none;top=0;left=0;bottom=0;right=0;overflow=hidden;" vertex="1" parent="093m5_2xSW1rwAm4586A-49">
          <mxGeometry x="320" width="100" height="55" as="geometry">
            <mxRectangle width="100" height="55" as="alternateBounds" />
          </mxGeometry>
        </mxCell>
        <mxCell id="093m5_2xSW1rwAm4586A-52" value="1" style="shape=partialRectangle;html=1;whiteSpace=wrap;connectable=0;fillColor=none;top=0;left=0;bottom=0;right=0;overflow=hidden;" vertex="1" parent="093m5_2xSW1rwAm4586A-49">
          <mxGeometry x="420" width="60" height="55" as="geometry">
            <mxRectangle width="60" height="55" as="alternateBounds" />
          </mxGeometry>
        </mxCell>
        <mxCell id="093m5_2xSW1rwAm4586A-80" value="&lt;h1&gt;calc invertory-available&lt;/h1&gt;&lt;p&gt;on-day-available=pre_arrival-pre_arrival_booked+on_day-on_day_booked+bank&lt;/p&gt;&lt;p&gt;pre_arrival_available=pre_arrival-pre_arrival_booked+bank&lt;/p&gt;" style="text;html=1;strokeColor=none;fillColor=none;spacing=5;spacingTop=-20;whiteSpace=wrap;overflow=hidden;rounded=0;" vertex="1" parent="1">
          <mxGeometry x="160" y="950" width="460" height="140" as="geometry" />
        </mxCell>
      </root>
    </mxGraphModel>
  </diagram>
</mxfile>
